<?xml version="1.0" encoding="UTF-8"?>
<svg width="1200" height="1400" viewBox="0 0 1200 1400" xmlns="http://www.w3.org/2000/svg">
    <rect width="100%" height="100%" fill="white"/>

    <defs>
        <marker id="arrowhead" markerWidth="12" markerHeight="12" refX="10" refY="6" orient="auto">
            <path d="M0,0 L12,6 L0,12 L3,6 Z" fill="black"/>
        </marker>
    </defs>
    <text x="600" y="60" text-anchor="middle" font-family="Malgun Gothic, AppleGothic, Dotum, sans-serif" font-size="48" font-weight="bold">도 9: 증분 재계산 프로세스</text>
    <rect x="300.0" y="150" width="600" height="180" fill="white" stroke="black" stroke-width="3" rx="10"/>
    <text x="600.0" y="200" text-anchor="middle" font-family="Malgun Gothic, AppleGothic, Dotum, sans-serif" font-size="36" font-weight="bold">변경 이벤트 감지</text>
    <text x="600.0" y="260" text-anchor="middle" font-family="Malgun Gothic, AppleGothic, Dotum, sans-serif" font-size="28" font-weight="normal">User Action</text>
    <path d="M 600,330 L 600,410" stroke="black" stroke-width="3" fill="none" marker-end="url(#arrowhead)"/>
    <rect x="300.0" y="410" width="600" height="180" fill="white" stroke="black" stroke-width="3" rx="10"/>
    <text x="600.0" y="460" text-anchor="middle" font-family="Malgun Gothic, AppleGothic, Dotum, sans-serif" font-size="36" font-weight="bold">영향 범위 식별</text>
    <text x="600.0" y="520" text-anchor="middle" font-family="Malgun Gothic, AppleGothic, Dotum, sans-serif" font-size="28" font-weight="normal">Dependent Nodes</text>
    <path d="M 600,590 L 600,670" stroke="black" stroke-width="3" fill="none" marker-end="url(#arrowhead)"/>
    <rect x="300.0" y="670" width="600" height="180" fill="white" stroke="black" stroke-width="3" rx="10"/>
    <text x="600.0" y="720" text-anchor="middle" font-family="Malgun Gothic, AppleGothic, Dotum, sans-serif" font-size="36" font-weight="bold">증분 재계산</text>
    <text x="600.0" y="780" text-anchor="middle" font-family="Malgun Gothic, AppleGothic, Dotum, sans-serif" font-size="28" font-weight="normal">Partial Update</text>
    <path d="M 600,850 L 600,930" stroke="black" stroke-width="3" fill="none" marker-end="url(#arrowhead)"/>
    <rect x="300.0" y="930" width="600" height="180" fill="white" stroke="black" stroke-width="3" rx="10"/>
    <text x="600.0" y="980" text-anchor="middle" font-family="Malgun Gothic, AppleGothic, Dotum, sans-serif" font-size="36" font-weight="bold">UI 부분 갱신</text>
    <text x="600.0" y="1040" text-anchor="middle" font-family="Malgun Gothic, AppleGothic, Dotum, sans-serif" font-size="28" font-weight="normal">Efficient Render</text>
    <path d="M 900.0,1020.0 L 950.0,1020.0 L 950.0,240.0 L 900.0,240.0" stroke="black" stroke-width="3" fill="none" marker-end="url(#arrowhead)"/>
</svg>