<svg width="1200" height="800" viewBox="0 0 1200 800" xmlns="http://www.w3.org/2000/svg">
  <!-- ??3: Parser/Normalizer ?뚮줈?곗감??-->
  <rect width="100%" height="100%" fill="white"/>
  <defs>
    <marker id="arrowhead" markerWidth="10" markerHeight="7" refX="9" refY="3.5" orient="auto">
      <polygon points="0 0, 10 3.5, 0 7" fill="black"/>
    </marker>
  </defs>

  <!-- ?꾨㈃ 踰덊샇 -->
  <text x="50" y="60" font-family="Arial, sans-serif" font-size="32" font-weight="bold">??3</text>

  <!-- Parser/Normalizer 50 -->
  <rect x="350" y="80" width="500" height="650" fill="none" stroke="black" stroke-width="2" stroke-dasharray="5,5" rx="10"/>
  <text x="800" y="120" text-anchor="end" font-family="Arial, sans-serif" font-size="28" font-weight="bold">Parser/Normalizer 50</text>

  <!-- Step 1: ?낅젰 40 -->
  <rect x="400" y="150" width="400" height="100" fill="white" stroke="black" stroke-width="3" rx="10"/>
  <text x="600" y="195" text-anchor="middle" font-family="Arial, sans-serif" font-size="28" font-weight="bold">SAL ID ?낅젰</text>
  <text x="600" y="225" text-anchor="middle" font-family="Arial, sans-serif" font-size="24">(Input) 40</text>

  <!-- ?붿궡??1 -->
  <line x1="600" y1="250" x2="600" y2="300" stroke="black" stroke-width="2" marker-end="url(#arrowhead)"/>

  <!-- Step 2: ?뺢퇋??留ㅼ묶 51 -->
  <rect x="400" y="300" width="400" height="100" fill="white" stroke="black" stroke-width="3" rx="10"/>
  <text x="600" y="345" text-anchor="middle" font-family="Arial, sans-serif" font-size="28" font-weight="bold">?뺢퇋??留ㅼ묶</text>
  <text x="600" y="375" text-anchor="middle" font-family="Arial, sans-serif" font-size="28" font-weight="bold">51</text>

  <!-- ?붿궡??2 -->
  <line x1="600" y1="400" x2="600" y2="450" stroke="black" stroke-width="2" marker-end="url(#arrowhead)"/>

  <!-- Step 3: ?좏슚??寃??53 -->
  <rect x="400" y="450" width="400" height="100" fill="white" stroke="black" stroke-width="3" rx="10"/>
  <text x="600" y="495" text-anchor="middle" font-family="Arial, sans-serif" font-size="28" font-weight="bold">?좏슚??寃??/text>
  <text x="600" y="525" text-anchor="middle" font-family="Arial, sans-serif" font-size="28" font-weight="bold">53</text>

  <!-- ?붿궡??3 -->
  <line x1="600" y1="550" x2="600" y2="600" stroke="black" stroke-width="2" marker-end="url(#arrowhead)"/>

  <!-- Step 4: ?뺣젹???앹꽦 54 -->
  <rect x="400" y="600" width="400" height="100" fill="white" stroke="black" stroke-width="3" rx="10"/>
  <text x="600" y="645" text-anchor="middle" font-family="Arial, sans-serif" font-size="28" font-weight="bold">?뺣젹???앹꽦</text>
  <text x="600" y="675" text-anchor="middle" font-family="Arial, sans-serif" font-size="28" font-weight="bold">54</text>

  <!-- 醫뚯륫: ?먮윭 泥섎━ 55 -->
  <rect x="100" y="450" width="200" height="100" fill="white" stroke="black" stroke-width="2" rx="5"/>
  <text x="200" y="495" text-anchor="middle" font-family="Arial, sans-serif" font-size="28" font-weight="bold">?먮윭 泥섎━</text>
  <text x="200" y="525" text-anchor="middle" font-family="Arial, sans-serif" font-size="28" font-weight="bold">55</text>

  <!-- ?먮윭 ?붿궡??-->
  <line x1="400" y1="500" x2="300" y2="500" stroke="black" stroke-width="2" marker-end="url(#arrowhead)"/>

</svg>
