<svg width="1400" height="900" viewBox="0 0 1400 900" xmlns="http://www.w3.org/2000/svg">
  <!-- 도 9: 도메인별 적용 예시 - 4분할 서브다이어그램 -->

  <!-- 제목 -->
  <text x="700" y="40" text-anchor="middle" font-family="Arial, sans-serif" font-size="24" font-weight="bold">도메인별 SAL 3D Grid 적용 예시 - 4분할 구성</text>

  <!-- 상단 좌측: 소프트웨어 개발 -->
  <rect x="50" y="70" width="620" height="380" fill="none" stroke="black" stroke-width="3" rx="5"/>
  <text x="360" y="100" text-anchor="middle" font-family="Arial, sans-serif" font-size="20" font-weight="bold">1. 소프트웨어 개발</text>
  <line x1="60" y1="115" x2="660" y2="115" stroke="black" stroke-width="1"/>

  <!-- 소프트웨어 Grid -->
  <text x="100" y="145" font-family="Arial, sans-serif" font-size="12">Stage →</text>
  <text x="70" y="200" font-family="Arial, sans-serif" font-size="12" writing-mode="tb">Area</text>

  <!-- Stage 헤더 -->
  <text x="160" y="145" text-anchor="middle" font-family="Arial, sans-serif" font-size="11" font-weight="bold">S1:계획</text>
  <text x="250" y="145" text-anchor="middle" font-family="Arial, sans-serif" font-size="11" font-weight="bold">S2:개발</text>
  <text x="340" y="145" text-anchor="middle" font-family="Arial, sans-serif" font-size="11" font-weight="bold">S3:테스트</text>
  <text x="430" y="145" text-anchor="middle" font-family="Arial, sans-serif" font-size="11" font-weight="bold">S4:배포</text>

  <!-- Grid 셀들 -->
  <!-- FE Row -->
  <text x="95" y="180" font-family="Arial, sans-serif" font-size="11" font-weight="bold">FE</text>
  <rect x="120" y="160" width="80" height="35" fill="none" stroke="black" stroke-width="1"/>
  <text x="160" y="182" text-anchor="middle" font-family="Arial, sans-serif" font-size="10">S1FE1</text>
  <rect x="210" y="160" width="80" height="35" fill="none" stroke="black" stroke-width="1"/>
  <text x="250" y="182" text-anchor="middle" font-family="Arial, sans-serif" font-size="10">S2FE1~3</text>
  <rect x="300" y="160" width="80" height="35" fill="none" stroke="black" stroke-width="1"/>
  <text x="340" y="182" text-anchor="middle" font-family="Arial, sans-serif" font-size="10">S3FE1</text>
  <rect x="390" y="160" width="80" height="35" fill="none" stroke="black" stroke-width="1"/>
  <text x="430" y="182" text-anchor="middle" font-family="Arial, sans-serif" font-size="10">S4FE1</text>

  <!-- BE Row -->
  <text x="95" y="215" font-family="Arial, sans-serif" font-size="11" font-weight="bold">BE</text>
  <rect x="120" y="200" width="80" height="35" fill="none" stroke="black" stroke-width="1"/>
  <text x="160" y="222" text-anchor="middle" font-family="Arial, sans-serif" font-size="10">S1BE1</text>
  <rect x="210" y="200" width="80" height="35" fill="none" stroke="black" stroke-width="1"/>
  <text x="250" y="222" text-anchor="middle" font-family="Arial, sans-serif" font-size="10">S2BE1~4</text>
  <rect x="300" y="200" width="80" height="35" fill="none" stroke="black" stroke-width="1"/>
  <text x="340" y="222" text-anchor="middle" font-family="Arial, sans-serif" font-size="10">S3BE1</text>
  <rect x="390" y="200" width="80" height="35" fill="none" stroke="black" stroke-width="1"/>
  <text x="430" y="222" text-anchor="middle" font-family="Arial, sans-serif" font-size="10">S4BE1</text>

  <!-- QA Row -->
  <text x="95" y="255" font-family="Arial, sans-serif" font-size="11" font-weight="bold">QA</text>
  <rect x="120" y="240" width="80" height="35" fill="none" stroke="black" stroke-width="1"/>
  <rect x="210" y="240" width="80" height="35" fill="none" stroke="black" stroke-width="1"/>
  <rect x="300" y="240" width="80" height="35" fill="none" stroke="black" stroke-width="1"/>
  <text x="340" y="262" text-anchor="middle" font-family="Arial, sans-serif" font-size="10">S3QA1~3</text>
  <rect x="390" y="240" width="80" height="35" fill="none" stroke="black" stroke-width="1"/>

  <!-- INF Row -->
  <text x="95" y="295" font-family="Arial, sans-serif" font-size="11" font-weight="bold">INF</text>
  <rect x="120" y="280" width="80" height="35" fill="none" stroke="black" stroke-width="1"/>
  <text x="160" y="302" text-anchor="middle" font-family="Arial, sans-serif" font-size="10">S1IN1</text>
  <rect x="210" y="280" width="80" height="35" fill="none" stroke="black" stroke-width="1"/>
  <rect x="300" y="280" width="80" height="35" fill="none" stroke="black" stroke-width="1"/>
  <rect x="390" y="280" width="80" height="35" fill="none" stroke="black" stroke-width="1"/>
  <text x="430" y="302" text-anchor="middle" font-family="Arial, sans-serif" font-size="10">S4IN1~2</text>

  <!-- 소프트웨어 설명 -->
  <rect x="500" y="160" width="160" height="155" fill="none" stroke="black" stroke-width="1" rx="3"/>
  <text x="580" y="185" text-anchor="middle" font-family="Arial, sans-serif" font-size="12" font-weight="bold">Area 코드</text>
  <text x="580" y="210" text-anchor="middle" font-family="Arial, sans-serif" font-size="11">FE: Frontend</text>
  <text x="580" y="230" text-anchor="middle" font-family="Arial, sans-serif" font-size="11">BE: Backend</text>
  <text x="580" y="250" text-anchor="middle" font-family="Arial, sans-serif" font-size="11">QA: 품질보증</text>
  <text x="580" y="270" text-anchor="middle" font-family="Arial, sans-serif" font-size="11">INF: 인프라</text>
  <text x="580" y="305" text-anchor="middle" font-family="Arial, sans-serif" font-size="10">Level: 1~3단계</text>

  <!-- DAG 예시 -->
  <text x="200" y="350" font-family="Arial, sans-serif" font-size="12" font-weight="bold">DAG 예시:</text>
  <rect x="130" y="360" width="50" height="25" fill="none" stroke="black" stroke-width="1" rx="2"/>
  <text x="155" y="378" text-anchor="middle" font-family="Arial, sans-serif" font-size="9">S1BE1</text>
  <line x1="180" y1="372" x2="220" y2="372" stroke="black" stroke-width="1"/>
  <polygon points="220,372 215,368 215,376" fill="black"/>
  <rect x="225" y="360" width="50" height="25" fill="none" stroke="black" stroke-width="1" rx="2"/>
  <text x="250" y="378" text-anchor="middle" font-family="Arial, sans-serif" font-size="9">S2FE1</text>
  <line x1="275" y1="372" x2="315" y2="372" stroke="black" stroke-width="1"/>
  <polygon points="315,372 310,368 310,376" fill="black"/>
  <rect x="320" y="360" width="50" height="25" fill="none" stroke="black" stroke-width="1" rx="2"/>
  <text x="345" y="378" text-anchor="middle" font-family="Arial, sans-serif" font-size="9">S3QA1</text>
  <line x1="370" y1="372" x2="410" y2="372" stroke="black" stroke-width="1"/>
  <polygon points="410,372 405,368 405,376" fill="black"/>
  <rect x="415" y="360" width="50" height="25" fill="none" stroke="black" stroke-width="1" rx="2"/>
  <text x="440" y="378" text-anchor="middle" font-family="Arial, sans-serif" font-size="9">S4IN1</text>

  <!-- 상단 우측: 장기 제조 -->
  <rect x="730" y="70" width="620" height="380" fill="none" stroke="black" stroke-width="3" rx="5"/>
  <text x="1040" y="100" text-anchor="middle" font-family="Arial, sans-serif" font-size="20" font-weight="bold">2. 장기 제조 (자동차/항공)</text>
  <line x1="740" y1="115" x2="1340" y2="115" stroke="black" stroke-width="1"/>

  <!-- 제조 Grid 헤더 -->
  <text x="780" y="145" font-family="Arial, sans-serif" font-size="12">Stage →</text>
  <text x="750" y="200" font-family="Arial, sans-serif" font-size="12" writing-mode="tb">Area</text>

  <text x="840" y="145" text-anchor="middle" font-family="Arial, sans-serif" font-size="11" font-weight="bold">S1:설계</text>
  <text x="930" y="145" text-anchor="middle" font-family="Arial, sans-serif" font-size="11" font-weight="bold">S2:조달</text>
  <text x="1020" y="145" text-anchor="middle" font-family="Arial, sans-serif" font-size="11" font-weight="bold">S3:조립</text>
  <text x="1110" y="145" text-anchor="middle" font-family="Arial, sans-serif" font-size="11" font-weight="bold">S4:검수</text>

  <!-- HU Row -->
  <text x="775" y="180" font-family="Arial, sans-serif" font-size="11" font-weight="bold">HU</text>
  <rect x="800" y="160" width="80" height="35" fill="none" stroke="black" stroke-width="1"/>
  <text x="840" y="182" text-anchor="middle" font-family="Arial, sans-serif" font-size="10">S1HU1</text>
  <rect x="890" y="160" width="80" height="35" fill="none" stroke="black" stroke-width="1"/>
  <text x="930" y="182" text-anchor="middle" font-family="Arial, sans-serif" font-size="10">S2HU1</text>
  <rect x="980" y="160" width="80" height="35" fill="none" stroke="black" stroke-width="1"/>
  <text x="1020" y="182" text-anchor="middle" font-family="Arial, sans-serif" font-size="10">S3HU1~5</text>
  <rect x="1070" y="160" width="80" height="35" fill="none" stroke="black" stroke-width="1"/>

  <!-- EN Row -->
  <text x="775" y="215" font-family="Arial, sans-serif" font-size="11" font-weight="bold">EN</text>
  <rect x="800" y="200" width="80" height="35" fill="none" stroke="black" stroke-width="1"/>
  <text x="840" y="222" text-anchor="middle" font-family="Arial, sans-serif" font-size="10">S1EN1</text>
  <rect x="890" y="200" width="80" height="35" fill="none" stroke="black" stroke-width="1"/>
  <text x="930" y="222" text-anchor="middle" font-family="Arial, sans-serif" font-size="10">S2EN1~3</text>
  <rect x="980" y="200" width="80" height="35" fill="none" stroke="black" stroke-width="1"/>
  <text x="1020" y="222" text-anchor="middle" font-family="Arial, sans-serif" font-size="10">S3EN1</text>
  <rect x="1070" y="200" width="80" height="35" fill="none" stroke="black" stroke-width="1"/>

  <!-- AV Row -->
  <text x="775" y="255" font-family="Arial, sans-serif" font-size="11" font-weight="bold">AV</text>
  <rect x="800" y="240" width="80" height="35" fill="none" stroke="black" stroke-width="1"/>
  <rect x="890" y="240" width="80" height="35" fill="none" stroke="black" stroke-width="1"/>
  <text x="930" y="262" text-anchor="middle" font-family="Arial, sans-serif" font-size="10">S2AV1~2</text>
  <rect x="980" y="240" width="80" height="35" fill="none" stroke="black" stroke-width="1"/>
  <text x="1020" y="262" text-anchor="middle" font-family="Arial, sans-serif" font-size="10">S3AV1</text>
  <rect x="1070" y="240" width="80" height="35" fill="none" stroke="black" stroke-width="1"/>

  <!-- QC Row -->
  <text x="775" y="295" font-family="Arial, sans-serif" font-size="11" font-weight="bold">QC</text>
  <rect x="800" y="280" width="80" height="35" fill="none" stroke="black" stroke-width="1"/>
  <rect x="890" y="280" width="80" height="35" fill="none" stroke="black" stroke-width="1"/>
  <rect x="980" y="280" width="80" height="35" fill="none" stroke="black" stroke-width="1"/>
  <rect x="1070" y="280" width="80" height="35" fill="none" stroke="black" stroke-width="1"/>
  <text x="1110" y="302" text-anchor="middle" font-family="Arial, sans-serif" font-size="10">S4QC1~4</text>

  <!-- 제조 설명 -->
  <rect x="1180" y="160" width="160" height="155" fill="none" stroke="black" stroke-width="1" rx="3"/>
  <text x="1260" y="185" text-anchor="middle" font-family="Arial, sans-serif" font-size="12" font-weight="bold">Area 코드</text>
  <text x="1260" y="210" text-anchor="middle" font-family="Arial, sans-serif" font-size="11">HU: 차체(Hull)</text>
  <text x="1260" y="230" text-anchor="middle" font-family="Arial, sans-serif" font-size="11">EN: 엔진</text>
  <text x="1260" y="250" text-anchor="middle" font-family="Arial, sans-serif" font-size="11">AV: 전장(Avionics)</text>
  <text x="1260" y="270" text-anchor="middle" font-family="Arial, sans-serif" font-size="11">QC: 품질관리</text>
  <text x="1260" y="305" text-anchor="middle" font-family="Arial, sans-serif" font-size="10">Level: 하위부품 깊이</text>

  <!-- 제조 특이사항 -->
  <text x="880" y="350" font-family="Arial, sans-serif" font-size="12" font-weight="bold">병렬 조달:</text>
  <text x="880" y="370" font-family="Arial, sans-serif" font-size="11">S2EN1a, S2EN1b, S2EN1c (동시 진행)</text>
  <text x="880" y="395" font-family="Arial, sans-serif" font-size="12" font-weight="bold">리드타임:</text>
  <text x="880" y="415" font-family="Arial, sans-serif" font-size="11">EN 부품 → 12주 대기 (Critical Path)</text>

  <!-- 하단 좌측: 회계감사 -->
  <rect x="50" y="470" width="620" height="380" fill="none" stroke="black" stroke-width="3" rx="5"/>
  <text x="360" y="500" text-anchor="middle" font-family="Arial, sans-serif" font-size="20" font-weight="bold">3. 회계감사</text>
  <line x1="60" y1="515" x2="660" y2="515" stroke="black" stroke-width="1"/>

  <!-- 회계감사 Grid 헤더 -->
  <text x="100" y="545" font-family="Arial, sans-serif" font-size="12">Stage →</text>
  <text x="70" y="600" font-family="Arial, sans-serif" font-size="12" writing-mode="tb">Area</text>

  <text x="160" y="545" text-anchor="middle" font-family="Arial, sans-serif" font-size="11" font-weight="bold">S1:계획</text>
  <text x="250" y="545" text-anchor="middle" font-family="Arial, sans-serif" font-size="11" font-weight="bold">S2:현장</text>
  <text x="340" y="545" text-anchor="middle" font-family="Arial, sans-serif" font-size="11" font-weight="bold">S3:분석</text>
  <text x="430" y="545" text-anchor="middle" font-family="Arial, sans-serif" font-size="11" font-weight="bold">S4:보고</text>

  <!-- FI Row -->
  <text x="95" y="580" font-family="Arial, sans-serif" font-size="11" font-weight="bold">FI</text>
  <rect x="120" y="560" width="80" height="35" fill="none" stroke="black" stroke-width="1"/>
  <text x="160" y="582" text-anchor="middle" font-family="Arial, sans-serif" font-size="10">S1FI1</text>
  <rect x="210" y="560" width="80" height="35" fill="none" stroke="black" stroke-width="1"/>
  <text x="250" y="582" text-anchor="middle" font-family="Arial, sans-serif" font-size="10">S2FI1~5</text>
  <rect x="300" y="560" width="80" height="35" fill="none" stroke="black" stroke-width="1"/>
  <text x="340" y="582" text-anchor="middle" font-family="Arial, sans-serif" font-size="10">S3FI1~3</text>
  <rect x="390" y="560" width="80" height="35" fill="none" stroke="black" stroke-width="1"/>
  <text x="430" y="582" text-anchor="middle" font-family="Arial, sans-serif" font-size="10">S4FI1</text>

  <!-- PU Row -->
  <text x="95" y="615" font-family="Arial, sans-serif" font-size="11" font-weight="bold">PU</text>
  <rect x="120" y="600" width="80" height="35" fill="none" stroke="black" stroke-width="1"/>
  <rect x="210" y="600" width="80" height="35" fill="none" stroke="black" stroke-width="1"/>
  <text x="250" y="622" text-anchor="middle" font-family="Arial, sans-serif" font-size="10">S2PU1~3</text>
  <rect x="300" y="600" width="80" height="35" fill="none" stroke="black" stroke-width="1"/>
  <text x="340" y="622" text-anchor="middle" font-family="Arial, sans-serif" font-size="10">S3PU1</text>
  <rect x="390" y="600" width="80" height="35" fill="none" stroke="black" stroke-width="1"/>

  <!-- SL Row -->
  <text x="95" y="655" font-family="Arial, sans-serif" font-size="11" font-weight="bold">SL</text>
  <rect x="120" y="640" width="80" height="35" fill="none" stroke="black" stroke-width="1"/>
  <rect x="210" y="640" width="80" height="35" fill="none" stroke="black" stroke-width="1"/>
  <text x="250" y="662" text-anchor="middle" font-family="Arial, sans-serif" font-size="10">S2SL1~2</text>
  <rect x="300" y="640" width="80" height="35" fill="none" stroke="black" stroke-width="1"/>
  <text x="340" y="662" text-anchor="middle" font-family="Arial, sans-serif" font-size="10">S3SL1</text>
  <rect x="390" y="640" width="80" height="35" fill="none" stroke="black" stroke-width="1"/>

  <!-- HR Row -->
  <text x="95" y="695" font-family="Arial, sans-serif" font-size="11" font-weight="bold">HR</text>
  <rect x="120" y="680" width="80" height="35" fill="none" stroke="black" stroke-width="1"/>
  <rect x="210" y="680" width="80" height="35" fill="none" stroke="black" stroke-width="1"/>
  <text x="250" y="702" text-anchor="middle" font-family="Arial, sans-serif" font-size="10">S2HR1</text>
  <rect x="300" y="680" width="80" height="35" fill="none" stroke="black" stroke-width="1"/>
  <rect x="390" y="680" width="80" height="35" fill="none" stroke="black" stroke-width="1"/>
  <text x="430" y="702" text-anchor="middle" font-family="Arial, sans-serif" font-size="10">S4HR1</text>

  <!-- 회계감사 설명 -->
  <rect x="500" y="560" width="160" height="155" fill="none" stroke="black" stroke-width="1" rx="3"/>
  <text x="580" y="585" text-anchor="middle" font-family="Arial, sans-serif" font-size="12" font-weight="bold">Area 코드</text>
  <text x="580" y="610" text-anchor="middle" font-family="Arial, sans-serif" font-size="11">FI: 재무</text>
  <text x="580" y="630" text-anchor="middle" font-family="Arial, sans-serif" font-size="11">PU: 구매/조달</text>
  <text x="580" y="650" text-anchor="middle" font-family="Arial, sans-serif" font-size="11">SL: 매출</text>
  <text x="580" y="670" text-anchor="middle" font-family="Arial, sans-serif" font-size="11">HR: 인사/급여</text>
  <text x="580" y="705" text-anchor="middle" font-family="Arial, sans-serif" font-size="10">Level: 감사 깊이</text>

  <!-- 회계감사 특이사항 -->
  <text x="130" y="755" font-family="Arial, sans-serif" font-size="12" font-weight="bold">외부 의존:</text>
  <text x="130" y="775" font-family="Arial, sans-serif" font-size="11">S3FI1 ← 고객사 자료 수신 대기</text>
  <text x="130" y="800" font-family="Arial, sans-serif" font-size="12" font-weight="bold">규제 마감:</text>
  <text x="130" y="820" font-family="Arial, sans-serif" font-size="11">S4FI1 → 법정 제출 기한 (하드 데드라인)</text>

  <!-- 하단 우측: ML 파이프라인 -->
  <rect x="730" y="470" width="620" height="380" fill="none" stroke="black" stroke-width="3" rx="5"/>
  <text x="1040" y="500" text-anchor="middle" font-family="Arial, sans-serif" font-size="20" font-weight="bold">4. ML 파이프라인</text>
  <line x1="740" y1="515" x2="1340" y2="515" stroke="black" stroke-width="1"/>

  <!-- ML Grid 헤더 -->
  <text x="780" y="545" font-family="Arial, sans-serif" font-size="12">Stage →</text>
  <text x="750" y="600" font-family="Arial, sans-serif" font-size="12" writing-mode="tb">Area</text>

  <text x="840" y="545" text-anchor="middle" font-family="Arial, sans-serif" font-size="11" font-weight="bold">S1:수집</text>
  <text x="920" y="545" text-anchor="middle" font-family="Arial, sans-serif" font-size="11" font-weight="bold">S2:정제</text>
  <text x="1000" y="545" text-anchor="middle" font-family="Arial, sans-serif" font-size="11" font-weight="bold">S3:피처</text>
  <text x="1080" y="545" text-anchor="middle" font-family="Arial, sans-serif" font-size="11" font-weight="bold">S4:학습</text>

  <!-- DA Row -->
  <text x="775" y="580" font-family="Arial, sans-serif" font-size="11" font-weight="bold">DA</text>
  <rect x="800" y="560" width="75" height="35" fill="none" stroke="black" stroke-width="1"/>
  <text x="837" y="582" text-anchor="middle" font-family="Arial, sans-serif" font-size="10">S1DA1~3</text>
  <rect x="880" y="560" width="75" height="35" fill="none" stroke="black" stroke-width="1"/>
  <text x="917" y="582" text-anchor="middle" font-family="Arial, sans-serif" font-size="10">S2DA1</text>
  <rect x="960" y="560" width="75" height="35" fill="none" stroke="black" stroke-width="1"/>
  <rect x="1040" y="560" width="75" height="35" fill="none" stroke="black" stroke-width="1"/>

  <!-- FE Row (Feature Engineering) -->
  <text x="775" y="615" font-family="Arial, sans-serif" font-size="11" font-weight="bold">FE</text>
  <rect x="800" y="600" width="75" height="35" fill="none" stroke="black" stroke-width="1"/>
  <rect x="880" y="600" width="75" height="35" fill="none" stroke="black" stroke-width="1"/>
  <text x="917" y="622" text-anchor="middle" font-family="Arial, sans-serif" font-size="10">S2FE1</text>
  <rect x="960" y="600" width="75" height="35" fill="none" stroke="black" stroke-width="1"/>
  <text x="997" y="622" text-anchor="middle" font-family="Arial, sans-serif" font-size="10">S3FE1~5</text>
  <rect x="1040" y="600" width="75" height="35" fill="none" stroke="black" stroke-width="1"/>

  <!-- MO Row -->
  <text x="775" y="655" font-family="Arial, sans-serif" font-size="11" font-weight="bold">MO</text>
  <rect x="800" y="640" width="75" height="35" fill="none" stroke="black" stroke-width="1"/>
  <rect x="880" y="640" width="75" height="35" fill="none" stroke="black" stroke-width="1"/>
  <rect x="960" y="640" width="75" height="35" fill="none" stroke="black" stroke-width="1"/>
  <rect x="1040" y="640" width="75" height="35" fill="none" stroke="black" stroke-width="1"/>
  <text x="1077" y="662" text-anchor="middle" font-family="Arial, sans-serif" font-size="10">S4MO1~3</text>

  <!-- IN Row -->
  <text x="775" y="695" font-family="Arial, sans-serif" font-size="11" font-weight="bold">IN</text>
  <rect x="800" y="680" width="75" height="35" fill="none" stroke="black" stroke-width="1"/>
  <rect x="880" y="680" width="75" height="35" fill="none" stroke="black" stroke-width="1"/>
  <rect x="960" y="680" width="75" height="35" fill="none" stroke="black" stroke-width="1"/>
  <rect x="1040" y="680" width="75" height="35" fill="none" stroke="black" stroke-width="1"/>
  <text x="1077" y="702" text-anchor="middle" font-family="Arial, sans-serif" font-size="10">S4IN1</text>

  <!-- ML 설명 -->
  <rect x="1160" y="560" width="180" height="155" fill="none" stroke="black" stroke-width="1" rx="3"/>
  <text x="1250" y="585" text-anchor="middle" font-family="Arial, sans-serif" font-size="12" font-weight="bold">Area 코드</text>
  <text x="1250" y="610" text-anchor="middle" font-family="Arial, sans-serif" font-size="11">DA: Data Acquisition</text>
  <text x="1250" y="630" text-anchor="middle" font-family="Arial, sans-serif" font-size="11">FE: Feature Engineering</text>
  <text x="1250" y="650" text-anchor="middle" font-family="Arial, sans-serif" font-size="11">MO: Model Training</text>
  <text x="1250" y="670" text-anchor="middle" font-family="Arial, sans-serif" font-size="11">IN: Inference/Deploy</text>
  <text x="1250" y="705" text-anchor="middle" font-family="Arial, sans-serif" font-size="10">Level: 실험 버전</text>

  <!-- ML 특이사항 -->
  <text x="780" y="755" font-family="Arial, sans-serif" font-size="12" font-weight="bold">반복 실험:</text>
  <text x="780" y="775" font-family="Arial, sans-serif" font-size="11">S4MO1a, S4MO1b, S4MO1c (하이퍼파라미터 튜닝)</text>
  <text x="780" y="800" font-family="Arial, sans-serif" font-size="12" font-weight="bold">Level 활용:</text>
  <text x="780" y="820" font-family="Arial, sans-serif" font-size="11">L1: baseline, L2: improved, L3: production</text>

</svg>
