<svg width="1200" height="800" viewBox="0 0 1200 800" xmlns="http://www.w3.org/2000/svg">
  <!-- ??1: ?꾩껜 ?쒖뒪??援ъ꽦??-->
  <rect width="100%" height="100%" fill="white"/>
  <defs>
    <marker id="arrowhead" markerWidth="10" markerHeight="7" refX="9" refY="3.5" orient="auto">
      <polygon points="0 0, 10 3.5, 0 7" fill="black"/>
    </marker>
  </defs>

  <!-- ?꾨㈃ 踰덊샇 -->
  <text x="50" y="60" font-family="Arial, sans-serif" font-size="32" font-weight="bold">??1</text>

  <!-- Parser/Normalizer 50 -->
  <rect x="100" y="150" width="300" height="150" fill="white" stroke="black" stroke-width="3" rx="10"/>
  <text x="250" y="215" text-anchor="middle" font-family="Arial, sans-serif" font-size="28" font-weight="bold">Parser/Normalizer</text>
  <text x="250" y="255" text-anchor="middle" font-family="Arial, sans-serif" font-size="28" font-weight="bold">50</text>

  <!-- Graph Builder 60 -->
  <rect x="450" y="150" width="300" height="150" fill="white" stroke="black" stroke-width="3" rx="10"/>
  <text x="600" y="215" text-anchor="middle" font-family="Arial, sans-serif" font-size="28" font-weight="bold">Graph Builder</text>
  <text x="600" y="255" text-anchor="middle" font-family="Arial, sans-serif" font-size="28" font-weight="bold">60</text>

  <!-- Scheduler/Leveler 70 -->
  <rect x="800" y="150" width="300" height="150" fill="white" stroke="black" stroke-width="3" rx="10"/>
  <text x="950" y="215" text-anchor="middle" font-family="Arial, sans-serif" font-size="28" font-weight="bold">Scheduler/Leveler</text>
  <text x="950" y="255" text-anchor="middle" font-family="Arial, sans-serif" font-size="28" font-weight="bold">70</text>

  <!-- 3D Renderer/UI 80 -->
  <rect x="800" y="400" width="300" height="150" fill="white" stroke="black" stroke-width="3" rx="10"/>
  <text x="950" y="465" text-anchor="middle" font-family="Arial, sans-serif" font-size="28" font-weight="bold">3D Renderer/UI</text>
  <text x="950" y="505" text-anchor="middle" font-family="Arial, sans-serif" font-size="28" font-weight="bold">80</text>

  <!-- ID Chain Manager 90 -->
  <rect x="100" y="400" width="300" height="150" fill="white" stroke="black" stroke-width="3" rx="10"/>
  <text x="250" y="465" text-anchor="middle" font-family="Arial, sans-serif" font-size="28" font-weight="bold">ID Chain Manager</text>
  <text x="250" y="505" text-anchor="middle" font-family="Arial, sans-serif" font-size="28" font-weight="bold">90</text>

  <!-- Reporting/Analytics 100 -->
  <rect x="450" y="400" width="300" height="150" fill="white" stroke="black" stroke-width="3" rx="10"/>
  <text x="600" y="465" text-anchor="middle" font-family="Arial, sans-serif" font-size="28" font-weight="bold">Reporting</text>
  <text x="600" y="505" text-anchor="middle" font-family="Arial, sans-serif" font-size="28" font-weight="bold">100</text>

  <!-- ?곌껐??-->
  <line x1="400" y1="225" x2="450" y2="225" stroke="black" stroke-width="2" marker-end="url(#arrowhead)"/>
  <line x1="750" y1="225" x2="800" y2="225" stroke="black" stroke-width="2" marker-end="url(#arrowhead)"/>
  <line x1="950" y1="300" x2="950" y2="400" stroke="black" stroke-width="2" marker-end="url(#arrowhead)"/>
  <line x1="250" y1="300" x2="250" y2="400" stroke="black" stroke-width="2" marker-end="url(#arrowhead)"/>
  <line x1="600" y1="300" x2="600" y2="400" stroke="black" stroke-width="2" marker-end="url(#arrowhead)"/>

</svg>
