<?xml version="1.0" encoding="UTF-8"?>
<svg width="1200" height="800" viewBox="0 0 1200 800" xmlns="http://www.w3.org/2000/svg">
    <rect width="100%" height="100%" fill="white"/>

    <defs>
        <marker id="arrowhead" markerWidth="10" markerHeight="7" refX="9" refY="3.5" orient="auto">
            <polygon points="0 0, 10 3.5, 0 7" fill="black"/>
        </marker>
    </defs>
    <text x="600" y="40" text-anchor="middle" font-family="Arial, sans-serif" font-size="32" font-weight="bold">도 9: 증분 재계산 프로세스</text>
    <rect x="400" y="100" width="400" height="100" fill="white" stroke="black" stroke-width="2" rx="5"/>
    <text x="600.0" y="150" text-anchor="middle" font-family="Arial, sans-serif" font-size="28" font-weight="bold">변경 이벤트 감지</text>
    <text x="600.0" y="185" text-anchor="middle" font-family="Arial, sans-serif" font-size="24" font-weight="normal">User Action / Status Change</text>
    <line x1="600" y1="200" x2="600" y2="250" stroke="black" stroke-width="2" marker-end="url(#arrowhead)"/>
    <rect x="400" y="250" width="400" height="100" fill="white" stroke="black" stroke-width="2" rx="5"/>
    <text x="600.0" y="300" text-anchor="middle" font-family="Arial, sans-serif" font-size="28" font-weight="bold">영향 범위 식별</text>
    <text x="600.0" y="335" text-anchor="middle" font-family="Arial, sans-serif" font-size="24" font-weight="normal">Dependent Nodes Only</text>
    <line x1="600" y1="350" x2="600" y2="400" stroke="black" stroke-width="2" marker-end="url(#arrowhead)"/>
    <rect x="400" y="400" width="400" height="100" fill="white" stroke="black" stroke-width="2" rx="5"/>
    <text x="600.0" y="450" text-anchor="middle" font-family="Arial, sans-serif" font-size="28" font-weight="bold">증분 재계산</text>
    <text x="600.0" y="485" text-anchor="middle" font-family="Arial, sans-serif" font-size="24" font-weight="normal">Partial DAG Update</text>
    <line x1="600" y1="500" x2="600" y2="550" stroke="black" stroke-width="2" marker-end="url(#arrowhead)"/>
    <rect x="400" y="550" width="400" height="100" fill="white" stroke="black" stroke-width="2" rx="5"/>
    <text x="600.0" y="600" text-anchor="middle" font-family="Arial, sans-serif" font-size="28" font-weight="bold">UI 부분 갱신</text>
    <text x="600.0" y="635" text-anchor="middle" font-family="Arial, sans-serif" font-size="24" font-weight="normal">Efficient Rendering</text>
</svg>